HIERARCHY
ROOT Hips
{
    OFFSET 0.0 0.0 0.0
    CHANNELS 6 Xposition Yposition Zposition Zrotation Xrotation Yrotation
    JOINT LeftHipJoint
    {
        OFFSET 0.1 0.0 0.0
        CHANNELS 3 Zrotation Xrotation Yrotation
        JOINT LeftUpLeg
        {
            OFFSET 125.91562485465795 0.0 0.0
            CHANNELS 3 Zrotation Xrotation Yrotation
            JOINT LeftLeg
            {
                OFFSET 0.0 0.0 -408.52588051263024
                CHANNELS 3 Zrotation Xrotation Yrotation
                JOINT LeftFoot
                {
                    OFFSET 0.0 0.0 -376.84279817397913
                    CHANNELS 3 Zrotation Xrotation Yrotation
                    End Site
                    {
                        OFFSET 0.0 -0.1 0.0
                    }
                }
            }
        }
    }
    JOINT LowerBack
    {
        OFFSET 0.0 0.0 0.1
        CHANNELS 3 Zrotation Xrotation Yrotation
        JOINT Spine
        {
            OFFSET 0.0 0.0 219.1042863721827
            CHANNELS 3 Zrotation Xrotation Yrotation
            JOINT Spine1
            {
                OFFSET 0.0 0.0 251.3627792685026
                CHANNELS 3 Zrotation Xrotation Yrotation
                JOINT LeftShoulder
                {
                    OFFSET 0.1 0.0 0.0
                    CHANNELS 3 Zrotation Xrotation Yrotation
                    JOINT LeftArm
                    {
                        OFFSET 139.26429425652566 0.0 0.0
                        CHANNELS 3 Zrotation Xrotation Yrotation
                        JOINT LeftForeArm
                        {
                            OFFSET 266.45623721238337 0.0 0.0
                            CHANNELS 3 Zrotation Xrotation Yrotation
                            JOINT LeftHand
                            {
                                OFFSET 238.58817467459295 0.0 0.0
                                CHANNELS 3 Zrotation Xrotation Yrotation
                                End Site
                                {
                                    OFFSET 0.1 0.0 0.0
                                }
                            }
                        }
                    }
                }
                JOINT Neck
                {
                    OFFSET 0.0 0.0 0.1
                    CHANNELS 3 Zrotation Xrotation Yrotation
                    JOINT Neck1
                    {
                        OFFSET 0.0 0.0 107.16059162253374
                        CHANNELS 3 Zrotation Xrotation Yrotation
                        End Site
                        {
                            OFFSET 0.0 0.0 117.27823685650056
                        }
                    }
                }
                JOINT RightShoulder
                {
                    OFFSET -0.1 0.0 0.0
                    CHANNELS 3 Zrotation Xrotation Yrotation
                    JOINT RightArm
                    {
                        OFFSET -139.26429425652566 0.0 0.0
                        CHANNELS 3 Zrotation Xrotation Yrotation
                        JOINT RightForeArm
                        {
                            OFFSET -266.45623721238337 0.0 0.0
                            CHANNELS 3 Zrotation Xrotation Yrotation
                            JOINT RightHand
                            {
                                OFFSET -238.58817467459295 0.0 0.0
                                CHANNELS 3 Zrotation Xrotation Yrotation
                                End Site
                                {
                                    OFFSET -0.1 0.0 0.0
                                }
                            }
                        }
                    }
                }
            }
        }
    }
    JOINT RightHipJoint
    {
        OFFSET -0.1 0.0 0.0
        CHANNELS 3 Zrotation Xrotation Yrotation
        JOINT RightUpLeg
        {
            OFFSET -125.91562485465795 0.0 0.0
            CHANNELS 3 Zrotation Xrotation Yrotation
            JOINT RightLeg
            {
                OFFSET 0.0 0.0 -408.52588051263024
                CHANNELS 3 Zrotation Xrotation Yrotation
                JOINT RightFoot
                {
                    OFFSET 0.0 0.0 -376.84279817397913
                    CHANNELS 3 Zrotation Xrotation Yrotation
                    End Site
                    {
                        OFFSET 0.0 -0.1 0.0
                    }
                }
            }
        }
    }
}
MOTION
Frames: 5
Frame Time: 0.03333333333333333
0.0 0.0 774.6383871969332 23.48342700883741 4.663607586410048 7.324134183568004 0.0 0.0 -6.957463365701443e-16 -0.575505663270765 -23.480962662027867 -2.951364614029415 -0.8332966885147034 28.940367269744044 -0.0790535243176145 0.0 0.0 0.0 0.0 0.0 -6.957463365701443e-16 0.10416633401573078 4.485543903860535 -1.873501078864425 1.265564353635743 -2.141400615018573e-16 -1.3892124522665846e-15 0.0 0.0 5.963540027744094e-16 -33.541875747565456 3.613202361800998 72.05053419590143 -28.383114134525236 4.643007261321184e-15 -5.38721857550037e-15 0.0 0.0 -2.3854160110976376e-15 0.0 0.0 5.963540027744094e-16 -11.374373834274056 -5.375406897369759 -17.169262822854922 0.0 0.0 5.963540027744094e-16 8.736966919927092 -24.52295799387072 -59.67611615284483 135.1769585627206 -1.3746577142007614e-14 -1.2549986202374148e-14 7.951386703658792e-16 0.0 0.0 0.0 0.0 -6.957463365701443e-16 -0.40997202603422656 -17.117596660205983 -8.23031748246227 -2.793878166799652 22.11905715333174 2.475485758027895 0.0 0.0 3.975693351829396e-16
0.0 0.0 774.6383871969332 23.473949204909896 4.625053912223624 7.299497701375417 0.0 0.0 0.0 -0.587246724397703 -23.411641192066373 -2.9610080192081445 -0.8161622763143921 28.822349749851092 -0.060633658069868306 0.0 0.0 0.0 0.0 0.0 0.0 0.1073861854213583 4.517428888746785 -1.883659091294351 1.2316450715127976 4.1677507368623133e-16 1.7846856260577613e-15 0.0 0.0 3.975693351829396e-16 -33.65086925651835 3.669263279724492 72.02464113936227 -28.33789554527143 6.587236976665001e-15 -1.3098541168812332e-14 -3.1805546814635164e-15 -8.276074308844047e-32 2.9817700138720468e-15 0.0 0.0 3.975693351829396e-16 -11.364746278278277 -5.330120081099756 -17.140534278035073 0.0 0.0 3.975693351829396e-16 8.576609321323017 -24.424732358511385 -59.7264885699206 135.26031552801535 2.573555910634948e-15 1.0591588230517392e-15 3.975693351829396e-16 0.0 0.0 0.0 0.0 0.0 -0.4182504282700743 -17.067512466136737 -8.19636170593318 -2.782559233855497 22.234858818953384 2.44134877853516 0.0 0.0 -3.975693351829396e-16
0.0 0.0 774.6383871969332 23.625752767061115 4.6413116998075035 7.320373411596477 0.0 0.0 1.987846675914698e-16 -0.5809918178013251 -23.443163030362058 -2.988636524519701 -0.8476232834497395 29.01263514680621 -0.07471481231331605 0.0 0.0 -3.975693351829396e-16 0.0 0.0 1.987846675914698e-16 0.10476391977681809 4.461000731692969 -1.9032972381277424 1.2097585854626263 -1.3998093613160812e-15 -7.804044569876501e-16 0.0 0.0 -7.951386703658792e-16 -33.765443694479195 3.797963772227117 72.14544551818108 -28.303347728303017 4.4448529792224315e-15 -4.619441505780396e-15 0.0 0.0 -2.9817700138720468e-15 0.0 0.0 -7.951386703658792e-16 -11.478826972196241 -5.207700690895281 -17.156147509306468 0.0 0.0 -7.951386703658792e-16 8.308858566123881 -24.682896223309278 -59.85511513852664 135.28184440237771 1.0722526743534996e-14 -9.345907225613073e-15 3.975693351829396e-16 0.0 0.0 0.0 0.0 1.987846675914698e-16 -0.41488342628341024 -17.12982196564561 -8.27284954130707 -2.851495781322869 22.449805369457682 2.6360312001557262 0.0 0.0 -3.975693351829396e-16
0.0 0.0 774.6383871969332 23.651075423505475 4.776264256924795 7.287041561892427 3.1805546814635164e-15 -1.987846675914698e-16 -6.957463365701442e-16 -0.5842488598172215 -23.61247352060394 -2.9501807736092647 -0.8316424066285405 29.1445378199682 -0.07794662190673089 0.0 0.0 0.0 3.1805546814635164e-15 -1.987846675914698e-16 -6.957463365701442e-16 0.10469380822833502 4.4684170726192 -1.905125779828146 1.226981696313192 5.835492176627711e-16 -1.1990249345574382e-15 1.3793457181406746e-32 -1.5902773407317584e-15 9.93923337957349e-16 -33.79863483971629 3.6753079548034213 72.13851188787689 -28.24037719888356 2.890478333084444e-15 1.547032188695532e-15 0.0 0.0 -2.1866313435061676e-15 1.3793457181406746e-32 -1.5902773407317584e-15 9.93923337957349e-16 -11.461981638431903 -5.290391734000692 -17.133329202542722 1.3793457181406746e-32 -1.5902773407317584e-15 9.93923337957349e-16 8.436954219736284 -24.913830141853367 -59.77027192469186 135.12722409152744 -1.500026677030816e-14 1.445235187442385e-14 3.975693351829396e-16 0.0 0.0 3.1805546814635164e-15 -1.987846675914698e-16 -6.957463365701442e-16 -0.41615626172016573 -17.213901485371526 -8.27996434538835 -2.8677031839620217 22.53552652468698 2.7286218892467273 0.0 0.0 0.0
0.0 0.0 774.6383871969332 23.65243792349379 4.736126244732464 7.255449637799969 0.0 0.0 5.963540027744094e-16 -0.5501553568805845 -23.627329677419993 -2.969525555561136 -0.9105243611232829 29.699514653149947 0.013640062363748989 0.0 0.0 0.0 0.0 0.0 5.963540027744094e-16 0.09793372531003024 4.440068821558479 -1.9042527844648265 1.2414378158623796 3.803179311415801e-16 -1.594491037282702e-15 0.0 0.0 1.987846675914698e-16 -33.60543950424951 3.6351940538125604 72.20771053392272 -28.109707661532525 5.5956405949537746e-15 -9.254956768007114e-15 5.517382872562698e-32 3.1805546814635168e-15 -1.987846675914698e-15 0.0 0.0 1.987846675914698e-16 -11.406593529567095 -5.161655174927579 -17.043900965752687 0.0 0.0 1.987846675914698e-16 8.6564794092397 -24.977080150114954 -59.69321502368101 134.95883858136295 1.6992103420808698e-14 -6.726968813034771e-15 7.95138670365879e-16 0.0 0.0 0.0 0.0 5.963540027744094e-16 -0.3932286900909384 -17.263990624936724 -8.253873528000998 -2.927309616331932 22.788482196945875 2.8102009874167555 0.0 0.0 3.9756933518293955e-16
